<svg width="1176" height="150" viewBox="0 0 1176 150" fill="none" xmlns="http://www.w3.org/2000/svg">
<path fill-rule="evenodd" clip-rule="evenodd" d="M339.9 0L312.306 22.8489C308.258 26.2004 307.964 32.3045 311.67 36.03L321.217 45.6257C324.017 48.4411 324.623 52.7674 322.704 56.244L316.765 67H306.933C302 67 298 63.0004 298 58.0667V8.93333C298 3.99959 302 0 306.933 0H339.9ZM345.083 0L339.929 9.38927C338.028 12.8511 338.626 17.1499 341.4 19.9614L351.527 30.2282C355.225 33.9775 354.894 40.0958 350.813 43.4243L321.907 67H356.067C361 67 365 63.0004 365 58.0667V8.93333C365 3.99959 361 0 356.067 0H345.083Z" fill="white"/>
<path d="M396.042 57.0772V43.3594H403.759C415.913 43.3594 423.501 36.7643 423.501 26.6079C423.501 16.4515 415.977 9.85642 403.887 9.85642H382.537V57.0772H396.042ZM396.042 19.8809H402.344C406.91 19.8809 409.932 22.519 409.932 26.6079C409.932 30.6969 406.91 33.3349 402.344 33.3349H396.042V19.8809Z" fill="white"/>
<path d="M451.209 58.0664C466.578 58.0664 476.997 48.5036 476.997 33.4668C476.997 18.43 466.578 8.93311 451.209 8.93311C435.774 8.93311 425.356 18.43 425.356 33.4668C425.356 48.5036 435.774 58.0664 451.209 58.0664ZM451.209 46.657C443.942 46.657 438.926 41.4468 438.926 33.4668C438.926 25.5527 443.942 20.2766 451.209 20.2766C458.476 20.2766 463.427 25.5527 463.427 33.4668C463.427 41.4468 458.476 46.657 451.209 46.657Z" fill="white"/>
<path d="M508.001 57.0772L514.432 28.4545H515.075L521.506 57.0772H540.413L552.825 9.85642H539.256L530.703 44.4806H530.059L521.506 9.85642H508.001L499.513 44.4806H498.87L490.252 9.85642H476.683L489.095 57.0772H508.001Z" fill="white"/>
<path d="M592.483 57.0772V46.1293H569.525V37.7536H586.599V28.7183H569.525V20.8042H591.84V9.85642H556.406V57.0772H592.483Z" fill="white"/>
<path d="M610.326 57.0772V41.5128H613.606L625.053 57.0772H640.166L626.596 40.4576L627.111 40.3257C633.799 39.0726 638.686 33.6647 638.686 25.9484C638.686 16.3196 631.227 9.85642 619.973 9.85642H596.757V57.0772H610.326ZM610.326 19.8809H617.593C621.902 19.8809 625.117 22.2552 625.117 26.1463C625.117 30.1033 621.902 32.4775 617.593 32.4775H610.326V19.8809Z" fill="white"/>
<path d="M656.769 57.0772V38.1493H672.525V57.0772H686.094V9.85642H672.525V27.2674H656.769V9.85642H643.2V57.0772H656.769Z" fill="white"/>
<path d="M716.207 58.0664C731.577 58.0664 741.995 48.5036 741.995 33.4668C741.995 18.43 731.577 8.93311 716.207 8.93311C700.773 8.93311 690.355 18.43 690.355 33.4668C690.355 48.5036 700.773 58.0664 716.207 58.0664ZM716.207 46.657C708.94 46.657 703.924 41.4468 703.924 33.4668C703.924 25.5527 708.94 20.2766 716.207 20.2766C723.474 20.2766 728.426 25.5527 728.426 33.4668C728.426 41.4468 723.474 46.657 716.207 46.657Z" fill="white"/>
<path d="M767.609 58.0664C780.471 58.0664 789.217 50.1523 789.217 37.6876V9.85642H775.648V37.226C775.648 42.8978 772.433 46.657 767.609 46.657C762.722 46.657 759.571 42.9637 759.571 37.226V9.85642L746.002 18.0453V37.6876C746.002 50.1523 754.748 58.0664 767.609 58.0664Z" fill="white"/>
<path d="M814.321 58.0664C827.183 58.0664 835.608 51.999 835.608 42.634C835.608 31.2245 824.997 29.5098 817.151 28.3226C811.813 27.5312 807.247 26.9377 807.247 23.3763C807.247 20.7383 809.82 18.8917 814.128 18.8917C818.759 18.8917 821.781 21.2659 821.781 25.4208H834.064C834.064 15.6601 825.897 8.93311 813.678 8.93311C801.524 8.93311 793.678 15.0006 793.678 24.3656C793.678 36.5005 805.64 37.4898 813.55 38.611C818.244 39.2705 822.039 40.0619 822.039 43.4913C822.039 46.3932 819.209 48.0419 814.836 48.0419C809.305 48.0419 806.154 45.4698 806.09 41.5128H793.357C793.357 51.2735 801.717 58.0664 814.321 58.0664Z" fill="white"/>
<path d="M876.103 57.0772V46.1293H853.145V37.7536H870.219V28.7183H853.145V20.8042H875.46V9.85642H840.026V57.0772H876.103Z" fill="white"/>
<path d="M72.1792 138H65.3042L69.1678 114.727H76.3383C78.5504 114.727 80.3762 115.197 81.8156 116.136C83.255 117.076 84.255 118.42 84.8156 120.17C85.3762 121.913 85.4519 123.996 85.0428 126.42C84.6413 128.845 83.8724 130.92 82.736 132.648C81.5997 134.375 80.1375 135.701 78.3497 136.625C76.5694 137.542 74.5125 138 72.1792 138ZM67.7474 136.091H72.2928C74.2777 136.091 76.0125 135.689 77.4974 134.886C78.9822 134.083 80.1906 132.943 81.1224 131.466C82.0542 129.981 82.6868 128.22 83.0201 126.182C83.3535 124.182 83.3156 122.47 82.9065 121.045C82.505 119.621 81.7285 118.53 80.5769 117.773C79.433 117.015 77.9141 116.636 76.0201 116.636H70.9633L67.7474 136.091ZM94.5119 138.364C92.8831 138.364 91.5384 137.985 90.4778 137.227C89.4172 136.462 88.6748 135.405 88.2505 134.057C87.8263 132.701 87.7619 131.14 88.0573 129.375C88.3528 127.617 88.9361 126.057 89.8073 124.693C90.6785 123.322 91.7543 122.25 93.0346 121.477C94.3149 120.697 95.7051 120.307 97.2051 120.307C98.152 120.307 99.0384 120.481 99.8641 120.83C100.69 121.17 101.391 121.697 101.966 122.409C102.55 123.114 102.955 124.004 103.182 125.08C103.41 126.148 103.402 127.413 103.16 128.875L103.001 129.875H89.3641L89.6482 128.091H101.228C101.417 126.97 101.364 125.962 101.069 125.068C100.773 124.174 100.269 123.466 99.5573 122.943C98.8528 122.413 97.9778 122.148 96.9323 122.148C95.8641 122.148 94.8528 122.447 93.8982 123.045C92.9513 123.644 92.1482 124.424 91.4891 125.386C90.8376 126.341 90.4172 127.36 90.2278 128.443L90.0005 129.784C89.7581 131.261 89.7884 132.5 90.0914 133.5C90.3944 134.492 90.9437 135.242 91.7391 135.75C92.5346 136.258 93.5535 136.511 94.796 136.511C95.6293 136.511 96.3831 136.383 97.0573 136.125C97.7316 135.867 98.3187 135.523 98.8187 135.091C99.3187 134.652 99.7202 134.17 100.023 133.648L101.83 134.273C101.444 135.008 100.898 135.686 100.194 136.307C99.4967 136.928 98.6672 137.428 97.7051 137.807C96.7505 138.178 95.6861 138.364 94.5119 138.364ZM112.515 138.364C110.939 138.364 109.64 137.973 108.617 137.193C107.595 136.413 106.879 135.345 106.47 133.989C106.068 132.625 106.011 131.08 106.299 129.352C106.587 127.595 107.167 126.038 108.038 124.682C108.909 123.318 109.985 122.25 111.265 121.477C112.553 120.697 113.958 120.307 115.481 120.307C116.655 120.307 117.678 120.534 118.549 120.989C119.42 121.436 120.095 122.068 120.572 122.886C121.049 123.697 121.276 124.644 121.254 125.727H119.208C119.155 124.72 118.788 123.871 118.106 123.182C117.432 122.492 116.477 122.148 115.242 122.148C114.113 122.148 113.068 122.451 112.106 123.057C111.144 123.655 110.329 124.492 109.663 125.568C109.004 126.636 108.56 127.875 108.333 129.284C108.091 130.701 108.113 131.955 108.401 133.045C108.689 134.129 109.204 134.977 109.947 135.591C110.697 136.205 111.644 136.511 112.788 136.511C113.568 136.511 114.303 136.367 114.992 136.08C115.682 135.784 116.292 135.367 116.822 134.83C117.352 134.284 117.757 133.644 118.038 132.909H120.083C119.742 133.97 119.204 134.909 118.47 135.727C117.742 136.545 116.871 137.189 115.856 137.659C114.841 138.129 113.727 138.364 112.515 138.364ZM130.214 138.364C128.585 138.364 127.241 137.985 126.18 137.227C125.119 136.462 124.377 135.405 123.953 134.057C123.529 132.701 123.464 131.14 123.76 129.375C124.055 127.617 124.638 126.057 125.51 124.693C126.381 123.322 127.457 122.25 128.737 121.477C130.017 120.697 131.407 120.307 132.907 120.307C133.854 120.307 134.741 120.481 135.566 120.83C136.392 121.17 137.093 121.697 137.669 122.409C138.252 123.114 138.657 124.004 138.885 125.08C139.112 126.148 139.104 127.413 138.862 128.875L138.703 129.875H125.066L125.35 128.091H136.93C137.119 126.97 137.066 125.962 136.771 125.068C136.475 124.174 135.972 123.466 135.26 122.943C134.555 122.413 133.68 122.148 132.635 122.148C131.566 122.148 130.555 122.447 129.6 123.045C128.654 123.644 127.85 124.424 127.191 125.386C126.54 126.341 126.119 127.36 125.93 128.443L125.703 129.784C125.46 131.261 125.491 132.5 125.794 133.5C126.097 134.492 126.646 135.242 127.441 135.75C128.237 136.258 129.256 136.511 130.498 136.511C131.332 136.511 132.085 136.383 132.76 136.125C133.434 135.867 134.021 135.523 134.521 135.091C135.021 134.652 135.422 134.17 135.725 133.648L137.532 134.273C137.146 135.008 136.6 135.686 135.896 136.307C135.199 136.928 134.369 137.428 133.407 137.807C132.453 138.178 131.388 138.364 130.214 138.364ZM145.274 127.091L143.467 138H141.445L144.354 120.545H146.32L145.865 123.284H146.047C146.592 122.39 147.346 121.674 148.308 121.136C149.278 120.591 150.403 120.318 151.683 120.318C152.85 120.318 153.835 120.564 154.638 121.057C155.448 121.542 156.024 122.258 156.365 123.205C156.713 124.152 156.774 125.314 156.547 126.693L154.649 138H152.626L154.49 126.818C154.725 125.394 154.516 124.265 153.865 123.432C153.221 122.591 152.225 122.17 150.876 122.17C149.96 122.17 149.107 122.367 148.32 122.761C147.539 123.155 146.88 123.723 146.342 124.466C145.804 125.201 145.448 126.076 145.274 127.091ZM169.408 120.545L169.124 122.307H160.783L161.078 120.545H169.408ZM164.362 116.364H166.396L163.556 133.443C163.434 134.17 163.465 134.742 163.646 135.159C163.828 135.568 164.109 135.86 164.487 136.034C164.866 136.201 165.283 136.284 165.737 136.284C166.003 136.284 166.23 136.269 166.419 136.239C166.616 136.201 166.79 136.163 166.942 136.125L167.09 137.955C166.87 138.03 166.609 138.098 166.306 138.159C166.003 138.227 165.639 138.261 165.215 138.261C164.472 138.261 163.787 138.098 163.158 137.773C162.529 137.447 162.052 136.962 161.726 136.318C161.4 135.674 161.313 134.875 161.465 133.92L164.362 116.364ZM170.741 138L173.65 120.545H175.616L175.161 123.227H175.309C175.794 122.348 176.517 121.64 177.479 121.102C178.449 120.557 179.483 120.284 180.581 120.284C180.748 120.284 180.934 120.288 181.138 120.295C181.343 120.295 181.513 120.303 181.65 120.318L181.297 122.375C181.206 122.36 181.047 122.337 180.82 122.307C180.6 122.277 180.354 122.261 180.081 122.261C179.172 122.261 178.331 122.455 177.559 122.841C176.794 123.22 176.15 123.746 175.627 124.42C175.112 125.095 174.778 125.864 174.627 126.727L172.763 138H170.741ZM186.656 138.398C185.603 138.398 184.675 138.193 183.871 137.784C183.068 137.367 182.47 136.769 182.076 135.989C181.69 135.201 181.584 134.246 181.758 133.125C181.909 132.261 182.197 131.534 182.621 130.943C183.053 130.352 183.599 129.867 184.258 129.489C184.917 129.102 185.675 128.799 186.531 128.58C187.387 128.36 188.318 128.193 189.326 128.08C190.311 127.958 191.152 127.852 191.849 127.761C192.546 127.67 193.087 127.527 193.474 127.33C193.86 127.133 194.091 126.814 194.167 126.375L194.235 125.966C194.432 124.777 194.25 123.841 193.69 123.159C193.129 122.47 192.19 122.125 190.871 122.125C189.614 122.125 188.523 122.405 187.599 122.966C186.682 123.519 186 124.167 185.553 124.909L183.758 124.216C184.303 123.261 184.974 122.5 185.769 121.932C186.565 121.356 187.417 120.943 188.326 120.693C189.235 120.436 190.133 120.307 191.019 120.307C191.686 120.307 192.364 120.394 193.053 120.568C193.743 120.742 194.36 121.045 194.906 121.477C195.459 121.902 195.864 122.496 196.121 123.261C196.387 124.019 196.425 124.981 196.235 126.148L194.258 138H192.235L192.701 135.239H192.576C192.258 135.754 191.818 136.254 191.258 136.739C190.705 137.223 190.042 137.621 189.269 137.932C188.496 138.242 187.625 138.398 186.656 138.398ZM187.167 136.545C188.243 136.545 189.216 136.307 190.087 135.83C190.966 135.352 191.686 134.72 192.246 133.932C192.815 133.136 193.178 132.261 193.337 131.307L193.758 128.784C193.591 128.928 193.318 129.057 192.94 129.17C192.568 129.284 192.148 129.386 191.678 129.477C191.216 129.561 190.75 129.633 190.281 129.693C189.818 129.754 189.409 129.807 189.053 129.852C188.046 129.973 187.167 130.163 186.417 130.42C185.675 130.678 185.08 131.034 184.633 131.489C184.186 131.936 183.906 132.511 183.792 133.216C183.618 134.277 183.849 135.098 184.485 135.682C185.129 136.258 186.023 136.545 187.167 136.545ZM205.173 114.727L201.309 138H199.287L203.15 114.727H205.173ZM206.332 138L209.241 120.545H211.275L208.366 138H206.332ZM210.991 117.511C210.567 117.511 210.207 117.367 209.912 117.08C209.624 116.792 209.484 116.443 209.491 116.034C209.506 115.648 209.662 115.314 209.957 115.034C210.26 114.746 210.616 114.602 211.025 114.602C211.45 114.602 211.81 114.75 212.105 115.045C212.4 115.333 212.541 115.682 212.525 116.091C212.518 116.477 212.363 116.811 212.06 117.091C211.756 117.371 211.4 117.511 210.991 117.511ZM212.818 138L213.102 136.398L225.455 122.602L225.477 122.455H215.841L216.159 120.545H228.421L228.136 122.216L215.977 135.943L215.955 136.091H226.193L225.875 138H212.818ZM236.492 138.364C234.863 138.364 233.518 137.985 232.458 137.227C231.397 136.462 230.655 135.405 230.231 134.057C229.806 132.701 229.742 131.14 230.037 129.375C230.333 127.617 230.916 126.057 231.787 124.693C232.659 123.322 233.734 122.25 235.015 121.477C236.295 120.697 237.685 120.307 239.185 120.307C240.132 120.307 241.018 120.481 241.844 120.83C242.67 121.17 243.371 121.697 243.946 122.409C244.53 123.114 244.935 124.004 245.162 125.08C245.39 126.148 245.382 127.413 245.14 128.875L244.981 129.875H231.344L231.628 128.091H243.208C243.397 126.97 243.344 125.962 243.049 125.068C242.753 124.174 242.249 123.466 241.537 122.943C240.833 122.413 239.958 122.148 238.912 122.148C237.844 122.148 236.833 122.447 235.878 123.045C234.931 123.644 234.128 124.424 233.469 125.386C232.818 126.341 232.397 127.36 232.208 128.443L231.981 129.784C231.738 131.261 231.768 132.5 232.071 133.5C232.374 134.492 232.924 135.242 233.719 135.75C234.515 136.258 235.534 136.511 236.776 136.511C237.609 136.511 238.363 136.383 239.037 136.125C239.712 135.867 240.299 135.523 240.799 135.091C241.299 134.652 241.7 134.17 242.003 133.648L243.81 134.273C243.424 135.008 242.878 135.686 242.174 136.307C241.477 136.928 240.647 137.428 239.685 137.807C238.731 138.178 237.666 138.364 236.492 138.364ZM253.972 138.364C252.54 138.364 251.347 137.985 250.393 137.227C249.438 136.47 248.771 135.413 248.393 134.057C248.014 132.701 247.972 131.121 248.268 129.318C248.571 127.523 249.135 125.951 249.961 124.602C250.794 123.246 251.813 122.193 253.018 121.443C254.23 120.686 255.552 120.307 256.984 120.307C258.052 120.307 258.904 120.496 259.54 120.875C260.184 121.246 260.673 121.708 261.006 122.261C261.34 122.814 261.578 123.352 261.722 123.875H261.904L263.427 114.727H265.461L261.597 138H259.631L260.177 134.761H259.927C259.601 135.292 259.173 135.837 258.643 136.398C258.12 136.951 257.476 137.417 256.711 137.795C255.946 138.174 255.033 138.364 253.972 138.364ZM254.415 136.511C255.544 136.511 256.563 136.205 257.472 135.591C258.389 134.97 259.154 134.117 259.768 133.034C260.389 131.943 260.813 130.693 261.04 129.284C261.275 127.89 261.271 126.659 261.029 125.591C260.787 124.515 260.317 123.674 259.62 123.068C258.923 122.455 258.003 122.148 256.859 122.148C255.7 122.148 254.669 122.466 253.768 123.102C252.866 123.731 252.12 124.583 251.529 125.659C250.946 126.735 250.54 127.943 250.313 129.284C250.093 130.64 250.093 131.864 250.313 132.955C250.533 134.045 250.98 134.913 251.654 135.557C252.336 136.193 253.256 136.511 254.415 136.511ZM282.507 138.364C280.977 138.364 279.689 137.977 278.643 137.205C277.598 136.424 276.859 135.345 276.427 133.966C275.996 132.587 275.924 130.996 276.211 129.193C276.499 127.436 277.071 125.89 277.927 124.557C278.791 123.216 279.852 122.174 281.109 121.432C282.367 120.682 283.734 120.307 285.211 120.307C286.749 120.307 288.037 120.697 289.075 121.477C290.121 122.258 290.859 123.337 291.291 124.716C291.73 126.095 291.806 127.689 291.518 129.5C291.23 131.25 290.655 132.792 289.791 134.125C288.927 135.451 287.867 136.489 286.609 137.239C285.359 137.989 283.992 138.364 282.507 138.364ZM282.53 136.511C283.772 136.511 284.878 136.182 285.848 135.523C286.825 134.856 287.632 133.97 288.268 132.864C288.905 131.75 289.333 130.527 289.552 129.193C289.757 127.92 289.734 126.75 289.484 125.682C289.234 124.614 288.753 123.758 288.041 123.114C287.329 122.47 286.382 122.148 285.2 122.148C283.965 122.148 282.859 122.485 281.882 123.159C280.905 123.826 280.098 124.72 279.461 125.841C278.825 126.955 278.401 128.174 278.189 129.5C277.977 130.78 277.992 131.951 278.234 133.011C278.484 134.072 278.965 134.92 279.677 135.557C280.397 136.193 281.348 136.511 282.53 136.511ZM293.107 144.545L297.129 120.545H299.095L298.55 123.875H298.788C299.107 123.352 299.519 122.814 300.027 122.261C300.542 121.708 301.182 121.246 301.948 120.875C302.72 120.496 303.644 120.307 304.72 120.307C306.16 120.307 307.353 120.682 308.3 121.432C309.254 122.182 309.921 123.235 310.3 124.591C310.686 125.947 310.728 127.523 310.425 129.318C310.129 131.121 309.565 132.701 308.732 134.057C307.898 135.413 306.879 136.47 305.675 137.227C304.478 137.985 303.167 138.364 301.743 138.364C300.69 138.364 299.838 138.174 299.186 137.795C298.542 137.417 298.05 136.951 297.709 136.398C297.368 135.837 297.122 135.292 296.97 134.761H296.788L295.152 144.545H293.107ZM297.675 129.284C297.448 130.693 297.448 131.943 297.675 133.034C297.902 134.117 298.36 134.97 299.05 135.591C299.739 136.205 300.648 136.511 301.777 136.511C302.936 136.511 303.97 136.193 304.879 135.557C305.788 134.913 306.546 134.045 307.152 132.955C307.758 131.864 308.175 130.64 308.402 129.284C308.614 127.943 308.607 126.735 308.379 125.659C308.152 124.583 307.698 123.731 307.016 123.102C306.334 122.466 305.406 122.148 304.232 122.148C303.095 122.148 302.073 122.455 301.163 123.068C300.262 123.674 299.512 124.515 298.913 125.591C298.315 126.659 297.902 127.89 297.675 129.284ZM320.076 138.364C318.447 138.364 317.102 137.985 316.042 137.227C314.981 136.462 314.238 135.405 313.814 134.057C313.39 132.701 313.326 131.14 313.621 129.375C313.917 127.617 314.5 126.057 315.371 124.693C316.242 123.322 317.318 122.25 318.598 121.477C319.879 120.697 321.269 120.307 322.769 120.307C323.716 120.307 324.602 120.481 325.428 120.83C326.254 121.17 326.954 121.697 327.53 122.409C328.113 123.114 328.519 124.004 328.746 125.08C328.973 126.148 328.966 127.413 328.723 128.875L328.564 129.875H314.928L315.212 128.091H326.792C326.981 126.97 326.928 125.962 326.632 125.068C326.337 124.174 325.833 123.466 325.121 122.943C324.417 122.413 323.542 122.148 322.496 122.148C321.428 122.148 320.417 122.447 319.462 123.045C318.515 123.644 317.712 124.424 317.053 125.386C316.401 126.341 315.981 127.36 315.792 128.443L315.564 129.784C315.322 131.261 315.352 132.5 315.655 133.5C315.958 134.492 316.507 135.242 317.303 135.75C318.098 136.258 319.117 136.511 320.36 136.511C321.193 136.511 321.947 136.383 322.621 136.125C323.295 135.867 323.882 135.523 324.382 135.091C324.882 134.652 325.284 134.17 325.587 133.648L327.394 134.273C327.007 135.008 326.462 135.686 325.757 136.307C325.06 136.928 324.231 137.428 323.269 137.807C322.314 138.178 321.25 138.364 320.076 138.364ZM331.306 138L334.215 120.545H336.181L335.726 123.227H335.874C336.359 122.348 337.083 121.64 338.045 121.102C339.014 120.557 340.048 120.284 341.147 120.284C341.314 120.284 341.499 120.288 341.704 120.295C341.908 120.295 342.079 120.303 342.215 120.318L341.863 122.375C341.772 122.36 341.613 122.337 341.386 122.307C341.166 122.277 340.92 122.261 340.647 122.261C339.738 122.261 338.897 122.455 338.124 122.841C337.359 123.22 336.715 123.746 336.192 124.42C335.677 125.095 335.344 125.864 335.192 126.727L333.329 138H331.306ZM347.221 138.398C346.168 138.398 345.24 138.193 344.437 137.784C343.634 137.367 343.035 136.769 342.642 135.989C342.255 135.201 342.149 134.246 342.323 133.125C342.475 132.261 342.763 131.534 343.187 130.943C343.619 130.352 344.164 129.867 344.823 129.489C345.482 129.102 346.24 128.799 347.096 128.58C347.952 128.36 348.884 128.193 349.892 128.08C350.876 127.958 351.717 127.852 352.414 127.761C353.111 127.67 353.653 127.527 354.039 127.33C354.426 127.133 354.657 126.814 354.732 126.375L354.801 125.966C354.998 124.777 354.816 123.841 354.255 123.159C353.695 122.47 352.755 122.125 351.437 122.125C350.179 122.125 349.088 122.405 348.164 122.966C347.248 123.519 346.566 124.167 346.119 124.909L344.323 124.216C344.869 123.261 345.539 122.5 346.335 121.932C347.13 121.356 347.982 120.943 348.892 120.693C349.801 120.436 350.698 120.307 351.585 120.307C352.251 120.307 352.929 120.394 353.619 120.568C354.308 120.742 354.926 121.045 355.471 121.477C356.024 121.902 356.429 122.496 356.687 123.261C356.952 124.019 356.99 124.981 356.801 126.148L354.823 138H352.801L353.267 135.239H353.142C352.823 135.754 352.384 136.254 351.823 136.739C351.27 137.223 350.607 137.621 349.835 137.932C349.062 138.242 348.191 138.398 347.221 138.398ZM347.732 136.545C348.808 136.545 349.782 136.307 350.653 135.83C351.532 135.352 352.251 134.72 352.812 133.932C353.38 133.136 353.744 132.261 353.903 131.307L354.323 128.784C354.157 128.928 353.884 129.057 353.505 129.17C353.134 129.284 352.713 129.386 352.244 129.477C351.782 129.561 351.316 129.633 350.846 129.693C350.384 129.754 349.975 129.807 349.619 129.852C348.611 129.973 347.732 130.163 346.982 130.42C346.24 130.678 345.645 131.034 345.198 131.489C344.751 131.936 344.471 132.511 344.357 133.216C344.183 134.277 344.414 135.098 345.051 135.682C345.695 136.258 346.588 136.545 347.732 136.545ZM369.636 120.545L369.352 122.307H361.011L361.307 120.545H369.636ZM364.591 116.364H366.625L363.784 133.443C363.663 134.17 363.693 134.742 363.875 135.159C364.057 135.568 364.337 135.86 364.716 136.034C365.094 136.201 365.511 136.284 365.966 136.284C366.231 136.284 366.458 136.269 366.647 136.239C366.844 136.201 367.019 136.163 367.17 136.125L367.318 137.955C367.098 138.03 366.837 138.098 366.534 138.159C366.231 138.227 365.867 138.261 365.443 138.261C364.701 138.261 364.015 138.098 363.386 137.773C362.757 137.447 362.28 136.962 361.954 136.318C361.629 135.674 361.541 134.875 361.693 133.92L364.591 116.364ZM370.991 138L373.901 120.545H375.935L373.026 138H370.991ZM375.651 117.511C375.226 117.511 374.866 117.367 374.571 117.08C374.283 116.792 374.143 116.443 374.151 116.034C374.166 115.648 374.321 115.314 374.616 115.034C374.92 114.746 375.276 114.602 375.685 114.602C376.109 114.602 376.469 114.75 376.764 115.045C377.06 115.333 377.2 115.682 377.185 116.091C377.177 116.477 377.022 116.811 376.719 117.091C376.416 117.371 376.06 117.511 375.651 117.511ZM384.887 138.364C383.356 138.364 382.068 137.977 381.023 137.205C379.978 136.424 379.239 135.345 378.807 133.966C378.375 132.587 378.303 130.996 378.591 129.193C378.879 127.436 379.451 125.89 380.307 124.557C381.171 123.216 382.231 122.174 383.489 121.432C384.746 120.682 386.114 120.307 387.591 120.307C389.129 120.307 390.417 120.697 391.455 121.477C392.5 122.258 393.239 123.337 393.671 124.716C394.11 126.095 394.186 127.689 393.898 129.5C393.61 131.25 393.034 132.792 392.171 134.125C391.307 135.451 390.246 136.489 388.989 137.239C387.739 137.989 386.371 138.364 384.887 138.364ZM384.909 136.511C386.152 136.511 387.258 136.182 388.228 135.523C389.205 134.856 390.012 133.97 390.648 132.864C391.284 131.75 391.712 130.527 391.932 129.193C392.137 127.92 392.114 126.75 391.864 125.682C391.614 124.614 391.133 123.758 390.421 123.114C389.709 122.47 388.762 122.148 387.58 122.148C386.345 122.148 385.239 122.485 384.262 123.159C383.284 123.826 382.478 124.72 381.841 125.841C381.205 126.955 380.781 128.174 380.568 129.5C380.356 130.78 380.371 131.951 380.614 133.011C380.864 134.072 381.345 134.92 382.057 135.557C382.777 136.193 383.728 136.511 384.909 136.511ZM400.407 127.091L398.6 138H396.577L399.486 120.545H401.452L400.998 123.284H401.18C401.725 122.39 402.479 121.674 403.441 121.136C404.411 120.591 405.536 120.318 406.816 120.318C407.983 120.318 408.967 120.564 409.77 121.057C410.581 121.542 411.157 122.258 411.498 123.205C411.846 124.152 411.907 125.314 411.68 126.693L409.782 138H407.759L409.623 126.818C409.858 125.394 409.649 124.265 408.998 123.432C408.354 122.591 407.358 122.17 406.009 122.17C405.092 122.17 404.24 122.367 403.452 122.761C402.672 123.155 402.013 123.723 401.475 124.466C400.937 125.201 400.581 126.076 400.407 127.091ZM428.756 124.375L426.813 124.875C426.715 124.352 426.533 123.883 426.268 123.466C426.01 123.042 425.635 122.708 425.143 122.466C424.658 122.216 424.022 122.091 423.234 122.091C422.052 122.091 421.033 122.379 420.177 122.955C419.321 123.523 418.821 124.25 418.677 125.136C418.556 125.879 418.711 126.481 419.143 126.943C419.582 127.405 420.317 127.769 421.347 128.034L423.893 128.682C425.302 129.045 426.306 129.614 426.904 130.386C427.51 131.159 427.719 132.136 427.529 133.318C427.363 134.303 426.942 135.174 426.268 135.932C425.601 136.689 424.745 137.284 423.7 137.716C422.662 138.148 421.503 138.364 420.222 138.364C418.503 138.364 417.15 137.977 416.166 137.205C415.188 136.432 414.666 135.318 414.597 133.864L416.631 133.409C416.692 134.439 417.044 135.22 417.688 135.75C418.34 136.28 419.256 136.545 420.438 136.545C421.787 136.545 422.919 136.239 423.836 135.625C424.753 135.011 425.279 134.254 425.416 133.352C425.544 132.64 425.412 132.049 425.018 131.58C424.631 131.11 423.972 130.761 423.041 130.534L420.325 129.852C418.863 129.481 417.828 128.902 417.222 128.114C416.624 127.318 416.423 126.337 416.62 125.17C416.779 124.208 417.181 123.364 417.825 122.636C418.469 121.909 419.283 121.341 420.268 120.932C421.253 120.515 422.328 120.307 423.495 120.307C425.101 120.307 426.325 120.67 427.166 121.398C428.006 122.117 428.537 123.11 428.756 124.375ZM449.243 120.545L448.959 122.307H440.618L440.913 120.545H449.243ZM444.197 116.364H446.231L443.391 133.443C443.269 134.17 443.3 134.742 443.481 135.159C443.663 135.568 443.944 135.86 444.322 136.034C444.701 136.201 445.118 136.284 445.572 136.284C445.838 136.284 446.065 136.269 446.254 136.239C446.451 136.201 446.625 136.163 446.777 136.125L446.925 137.955C446.705 138.03 446.444 138.098 446.141 138.159C445.838 138.227 445.474 138.261 445.05 138.261C444.307 138.261 443.622 138.098 442.993 137.773C442.364 137.447 441.887 136.962 441.561 136.318C441.235 135.674 441.148 134.875 441.3 133.92L444.197 116.364ZM457.252 138.364C455.721 138.364 454.433 137.977 453.388 137.205C452.343 136.424 451.604 135.345 451.172 133.966C450.74 132.587 450.668 130.996 450.956 129.193C451.244 127.436 451.816 125.89 452.672 124.557C453.536 123.216 454.596 122.174 455.854 121.432C457.111 120.682 458.479 120.307 459.956 120.307C461.494 120.307 462.782 120.697 463.82 121.477C464.865 122.258 465.604 123.337 466.036 124.716C466.475 126.095 466.551 127.689 466.263 129.5C465.975 131.25 465.399 132.792 464.536 134.125C463.672 135.451 462.611 136.489 461.354 137.239C460.104 137.989 458.736 138.364 457.252 138.364ZM457.274 136.511C458.517 136.511 459.623 136.182 460.593 135.523C461.57 134.856 462.377 133.97 463.013 132.864C463.649 131.75 464.077 130.527 464.297 129.193C464.502 127.92 464.479 126.75 464.229 125.682C463.979 124.614 463.498 123.758 462.786 123.114C462.074 122.47 461.127 122.148 459.945 122.148C458.71 122.148 457.604 122.485 456.627 123.159C455.649 123.826 454.843 124.72 454.206 125.841C453.57 126.955 453.146 128.174 452.933 129.5C452.721 130.78 452.736 131.951 452.979 133.011C453.229 134.072 453.71 134.92 454.422 135.557C455.142 136.193 456.093 136.511 457.274 136.511ZM475.806 138.364C474.276 138.364 472.988 137.977 471.942 137.205C470.897 136.424 470.158 135.345 469.726 133.966C469.295 132.587 469.223 130.996 469.51 129.193C469.798 127.436 470.37 125.89 471.226 124.557C472.09 123.216 473.151 122.174 474.408 121.432C475.666 120.682 477.033 120.307 478.51 120.307C480.048 120.307 481.336 120.697 482.374 121.477C483.42 122.258 484.158 123.337 484.59 124.716C485.029 126.095 485.105 127.689 484.817 129.5C484.529 131.25 483.954 132.792 483.09 134.125C482.226 135.451 481.166 136.489 479.908 137.239C478.658 137.989 477.291 138.364 475.806 138.364ZM475.829 136.511C477.071 136.511 478.177 136.182 479.147 135.523C480.124 134.856 480.931 133.97 481.567 132.864C482.204 131.75 482.632 130.527 482.851 129.193C483.056 127.92 483.033 126.75 482.783 125.682C482.533 124.614 482.052 123.758 481.34 123.114C480.628 122.47 479.681 122.148 478.499 122.148C477.264 122.148 476.158 122.485 475.181 123.159C474.204 123.826 473.397 124.72 472.76 125.841C472.124 126.955 471.7 128.174 471.488 129.5C471.276 130.78 471.291 131.951 471.533 133.011C471.783 134.072 472.264 134.92 472.976 135.557C473.696 136.193 474.647 136.511 475.829 136.511ZM493.383 114.727L489.519 138H487.497L491.36 114.727H493.383ZM497.451 131.409L497.86 128.739H498.315L507.849 120.545H510.44L501.019 128.636L500.838 128.67L497.451 131.409ZM494.519 138L498.383 114.727H500.406L496.542 138H494.519ZM505.429 138L499.804 129.034L501.451 127.636L507.985 138H505.429ZM511.003 138L513.912 120.545H515.946L513.037 138H511.003ZM515.662 117.511C515.238 117.511 514.878 117.367 514.582 117.08C514.294 116.792 514.154 116.443 514.162 116.034C514.177 115.648 514.332 115.314 514.628 115.034C514.931 114.746 515.287 114.602 515.696 114.602C516.12 114.602 516.48 114.75 516.775 115.045C517.071 115.333 517.211 115.682 517.196 116.091C517.188 116.477 517.033 116.811 516.73 117.091C516.427 117.371 516.071 117.511 515.662 117.511ZM527.818 120.545L527.534 122.307H519.193L519.489 120.545H527.818ZM522.773 116.364H524.807L521.966 133.443C521.845 134.17 521.875 134.742 522.057 135.159C522.239 135.568 522.519 135.86 522.898 136.034C523.277 136.201 523.693 136.284 524.148 136.284C524.413 136.284 524.64 136.269 524.83 136.239C525.027 136.201 525.201 136.163 525.352 136.125L525.5 137.955C525.28 138.03 525.019 138.098 524.716 138.159C524.413 138.227 524.049 138.261 523.625 138.261C522.883 138.261 522.197 138.098 521.568 137.773C520.94 137.447 520.462 136.962 520.137 136.318C519.811 135.674 519.724 134.875 519.875 133.92L522.773 116.364ZM547.89 120.545L547.594 122.307H539.026L539.31 120.545H547.89ZM539.083 138L542.413 117.989C542.564 117.049 542.909 116.258 543.447 115.614C543.992 114.97 544.644 114.481 545.401 114.148C546.159 113.814 546.935 113.648 547.731 113.648C548.261 113.648 548.693 113.693 549.026 113.784C549.36 113.867 549.621 113.951 549.81 114.034L548.947 115.807C548.795 115.761 548.613 115.708 548.401 115.648C548.197 115.587 547.928 115.557 547.594 115.557C546.716 115.557 545.996 115.803 545.435 116.295C544.875 116.788 544.515 117.492 544.356 118.409L541.106 138H539.083ZM554.811 138.364C553.28 138.364 551.992 137.977 550.947 137.205C549.902 136.424 549.163 135.345 548.731 133.966C548.299 132.587 548.227 130.996 548.515 129.193C548.803 127.436 549.375 125.89 550.231 124.557C551.095 123.216 552.155 122.174 553.413 121.432C554.67 120.682 556.038 120.307 557.515 120.307C559.053 120.307 560.341 120.697 561.379 121.477C562.424 122.258 563.163 123.337 563.595 124.716C564.034 126.095 564.11 127.689 563.822 129.5C563.534 131.25 562.958 132.792 562.095 134.125C561.231 135.451 560.17 136.489 558.913 137.239C557.663 137.989 556.295 138.364 554.811 138.364ZM554.833 136.511C556.076 136.511 557.182 136.182 558.152 135.523C559.129 134.856 559.936 133.97 560.572 132.864C561.208 131.75 561.636 130.527 561.856 129.193C562.061 127.92 562.038 126.75 561.788 125.682C561.538 124.614 561.057 123.758 560.345 123.114C559.633 122.47 558.686 122.148 557.504 122.148C556.269 122.148 555.163 122.485 554.186 123.159C553.208 123.826 552.402 124.72 551.765 125.841C551.129 126.955 550.705 128.174 550.492 129.5C550.28 130.78 550.295 131.951 550.538 133.011C550.788 134.072 551.269 134.92 551.981 135.557C552.701 136.193 553.652 136.511 554.833 136.511ZM566.501 138L569.41 120.545H571.376L570.922 123.227H571.069C571.554 122.348 572.278 121.64 573.24 121.102C574.21 120.557 575.244 120.284 576.342 120.284C576.509 120.284 576.694 120.288 576.899 120.295C577.104 120.295 577.274 120.303 577.41 120.318L577.058 122.375C576.967 122.36 576.808 122.337 576.581 122.307C576.361 122.277 576.115 122.261 575.842 122.261C574.933 122.261 574.092 122.455 573.319 122.841C572.554 123.22 571.91 123.746 571.388 124.42C570.872 125.095 570.539 125.864 570.388 126.727L568.524 138H566.501ZM593.098 138.364C591.568 138.364 590.28 137.977 589.235 137.205C588.189 136.424 587.451 135.345 587.019 133.966C586.587 132.587 586.515 130.996 586.803 129.193C587.091 127.436 587.663 125.89 588.519 124.557C589.382 123.216 590.443 122.174 591.701 121.432C592.958 120.682 594.326 120.307 595.803 120.307C597.341 120.307 598.629 120.697 599.667 121.477C600.712 122.258 601.451 123.337 601.882 124.716C602.322 126.095 602.398 127.689 602.11 129.5C601.822 131.25 601.246 132.792 600.382 134.125C599.519 135.451 598.458 136.489 597.201 137.239C595.951 137.989 594.583 138.364 593.098 138.364ZM593.121 136.511C594.364 136.511 595.47 136.182 596.439 135.523C597.417 134.856 598.223 133.97 598.86 132.864C599.496 131.75 599.924 130.527 600.144 129.193C600.348 127.92 600.326 126.75 600.076 125.682C599.826 124.614 599.345 123.758 598.632 123.114C597.92 122.47 596.973 122.148 595.792 122.148C594.557 122.148 593.451 122.485 592.473 123.159C591.496 123.826 590.689 124.72 590.053 125.841C589.417 126.955 588.992 128.174 588.78 129.5C588.568 130.78 588.583 131.951 588.826 133.011C589.076 134.072 589.557 134.92 590.269 135.557C590.989 136.193 591.939 136.511 593.121 136.511ZM603.698 144.545L607.721 120.545H609.687L609.141 123.875H609.38C609.698 123.352 610.111 122.814 610.619 122.261C611.134 121.708 611.774 121.246 612.539 120.875C613.312 120.496 614.236 120.307 615.312 120.307C616.751 120.307 617.944 120.682 618.891 121.432C619.846 122.182 620.513 123.235 620.891 124.591C621.278 125.947 621.319 127.523 621.016 129.318C620.721 131.121 620.156 132.701 619.323 134.057C618.49 135.413 617.471 136.47 616.266 137.227C615.069 137.985 613.759 138.364 612.334 138.364C611.281 138.364 610.429 138.174 609.778 137.795C609.134 137.417 608.641 136.951 608.3 136.398C607.959 135.837 607.713 135.292 607.562 134.761H607.38L605.744 144.545H603.698ZM608.266 129.284C608.039 130.693 608.039 131.943 608.266 133.034C608.494 134.117 608.952 134.97 609.641 135.591C610.331 136.205 611.24 136.511 612.369 136.511C613.528 136.511 614.562 136.193 615.471 135.557C616.38 134.913 617.138 134.045 617.744 132.955C618.35 131.864 618.766 130.64 618.994 129.284C619.206 127.943 619.198 126.735 618.971 125.659C618.744 124.583 618.289 123.731 617.607 123.102C616.925 122.466 615.997 122.148 614.823 122.148C613.687 122.148 612.664 122.455 611.755 123.068C610.853 123.674 610.103 124.515 609.505 125.591C608.906 126.659 608.494 127.89 608.266 129.284ZM630.667 138.364C629.038 138.364 627.694 137.985 626.633 137.227C625.572 136.462 624.83 135.405 624.406 134.057C623.981 132.701 623.917 131.14 624.213 129.375C624.508 127.617 625.091 126.057 625.963 124.693C626.834 123.322 627.91 122.25 629.19 121.477C630.47 120.697 631.86 120.307 633.36 120.307C634.307 120.307 635.194 120.481 636.019 120.83C636.845 121.17 637.546 121.697 638.122 122.409C638.705 123.114 639.11 124.004 639.338 125.08C639.565 126.148 639.557 127.413 639.315 128.875L639.156 129.875H625.519L625.803 128.091H637.383C637.572 126.97 637.519 125.962 637.224 125.068C636.928 124.174 636.425 123.466 635.713 122.943C635.008 122.413 634.133 122.148 633.088 122.148C632.019 122.148 631.008 122.447 630.053 123.045C629.106 123.644 628.303 124.424 627.644 125.386C626.993 126.341 626.572 127.36 626.383 128.443L626.156 129.784C625.913 131.261 625.944 132.5 626.247 133.5C626.55 134.492 627.099 135.242 627.894 135.75C628.69 136.258 629.709 136.511 630.951 136.511C631.785 136.511 632.538 136.383 633.213 136.125C633.887 135.867 634.474 135.523 634.974 135.091C635.474 134.652 635.875 134.17 636.178 133.648L637.985 134.273C637.599 135.008 637.053 135.686 636.349 136.307C635.652 136.928 634.822 137.428 633.86 137.807C632.906 138.178 631.841 138.364 630.667 138.364ZM645.727 127.091L643.92 138H641.897L644.807 120.545H646.772L646.318 123.284H646.5C647.045 122.39 647.799 121.674 648.761 121.136C649.731 120.591 650.856 120.318 652.136 120.318C653.303 120.318 654.288 120.564 655.091 121.057C655.901 121.542 656.477 122.258 656.818 123.205C657.166 124.152 657.227 125.314 657 126.693L655.102 138H653.079L654.943 126.818C655.178 125.394 654.969 124.265 654.318 123.432C653.674 122.591 652.678 122.17 651.329 122.17C650.413 122.17 649.56 122.367 648.772 122.761C647.992 123.155 647.333 123.723 646.795 124.466C646.257 125.201 645.901 126.076 645.727 127.091ZM673.554 138.398C672.501 138.398 671.573 138.193 670.77 137.784C669.967 137.367 669.369 136.769 668.975 135.989C668.588 135.201 668.482 134.246 668.657 133.125C668.808 132.261 669.096 131.534 669.52 130.943C669.952 130.352 670.497 129.867 671.157 129.489C671.816 129.102 672.573 128.799 673.429 128.58C674.285 128.36 675.217 128.193 676.225 128.08C677.21 127.958 678.051 127.852 678.747 127.761C679.444 127.67 679.986 127.527 680.372 127.33C680.759 127.133 680.99 126.814 681.066 126.375L681.134 125.966C681.331 124.777 681.149 123.841 680.588 123.159C680.028 122.47 679.088 122.125 677.77 122.125C676.513 122.125 675.422 122.405 674.497 122.966C673.581 123.519 672.899 124.167 672.452 124.909L670.657 124.216C671.202 123.261 671.872 122.5 672.668 121.932C673.463 121.356 674.316 120.943 675.225 120.693C676.134 120.436 677.032 120.307 677.918 120.307C678.585 120.307 679.263 120.394 679.952 120.568C680.641 120.742 681.259 121.045 681.804 121.477C682.357 121.902 682.763 122.496 683.02 123.261C683.285 124.019 683.323 124.981 683.134 126.148L681.157 138H679.134L679.6 135.239H679.475C679.157 135.754 678.717 136.254 678.157 136.739C677.604 137.223 676.941 137.621 676.168 137.932C675.395 138.242 674.524 138.398 673.554 138.398ZM674.066 136.545C675.141 136.545 676.115 136.307 676.986 135.83C677.865 135.352 678.585 134.72 679.145 133.932C679.713 133.136 680.077 132.261 680.236 131.307L680.657 128.784C680.49 128.928 680.217 129.057 679.838 129.17C679.467 129.284 679.047 129.386 678.577 129.477C678.115 129.561 677.649 129.633 677.179 129.693C676.717 129.754 676.308 129.807 675.952 129.852C674.944 129.973 674.066 130.163 673.316 130.42C672.573 130.678 671.979 131.034 671.532 131.489C671.085 131.936 670.804 132.511 670.691 133.216C670.516 134.277 670.747 135.098 671.384 135.682C672.028 136.258 672.922 136.545 674.066 136.545ZM690.015 127.091L688.208 138H686.185L689.094 120.545H691.06L690.606 123.284H690.788C691.333 122.39 692.087 121.674 693.049 121.136C694.019 120.591 695.144 120.318 696.424 120.318C697.591 120.318 698.575 120.564 699.378 121.057C700.189 121.542 700.765 122.258 701.106 123.205C701.454 124.152 701.515 125.314 701.288 126.693L699.39 138H697.367L699.231 126.818C699.466 125.394 699.257 124.265 698.606 123.432C697.962 122.591 696.966 122.17 695.617 122.17C694.7 122.17 693.848 122.367 693.06 122.761C692.28 123.155 691.621 123.723 691.083 124.466C690.545 125.201 690.189 126.076 690.015 127.091ZM710.615 138.364C709.183 138.364 707.99 137.985 707.035 137.227C706.08 136.47 705.414 135.413 705.035 134.057C704.656 132.701 704.615 131.121 704.91 129.318C705.213 127.523 705.777 125.951 706.603 124.602C707.436 123.246 708.455 122.193 709.66 121.443C710.872 120.686 712.194 120.307 713.626 120.307C714.694 120.307 715.546 120.496 716.183 120.875C716.827 121.246 717.315 121.708 717.649 122.261C717.982 122.814 718.221 123.352 718.365 123.875H718.546L720.069 114.727H722.103L718.24 138H716.274L716.819 134.761H716.569C716.243 135.292 715.815 135.837 715.285 136.398C714.762 136.951 714.118 137.417 713.353 137.795C712.588 138.174 711.675 138.364 710.615 138.364ZM711.058 136.511C712.186 136.511 713.205 136.205 714.115 135.591C715.031 134.97 715.796 134.117 716.41 133.034C717.031 131.943 717.455 130.693 717.683 129.284C717.918 127.89 717.914 126.659 717.671 125.591C717.429 124.515 716.959 123.674 716.262 123.068C715.565 122.455 714.645 122.148 713.501 122.148C712.342 122.148 711.311 122.466 710.41 123.102C709.508 123.731 708.762 124.583 708.171 125.659C707.588 126.735 707.183 127.943 706.955 129.284C706.736 130.64 706.736 131.864 706.955 132.955C707.175 134.045 707.622 134.913 708.296 135.557C708.978 136.193 709.899 136.511 711.058 136.511ZM742.07 120.545L741.785 122.307H733.445L733.74 120.545H742.07ZM737.024 116.364H739.058L736.217 133.443C736.096 134.17 736.126 134.742 736.308 135.159C736.49 135.568 736.77 135.86 737.149 136.034C737.528 136.201 737.945 136.284 738.399 136.284C738.664 136.284 738.892 136.269 739.081 136.239C739.278 136.201 739.452 136.163 739.604 136.125L739.751 137.955C739.532 138.03 739.27 138.098 738.967 138.159C738.664 138.227 738.301 138.261 737.876 138.261C737.134 138.261 736.448 138.098 735.82 137.773C735.191 137.447 734.714 136.962 734.388 136.318C734.062 135.674 733.975 134.875 734.126 133.92L737.024 116.364ZM743.402 138L746.311 120.545H748.277L747.823 123.227H747.97C748.455 122.348 749.179 121.64 750.141 121.102C751.111 120.557 752.145 120.284 753.243 120.284C753.41 120.284 753.595 120.288 753.8 120.295C754.005 120.295 754.175 120.303 754.311 120.318L753.959 122.375C753.868 122.36 753.709 122.337 753.482 122.307C753.262 122.277 753.016 122.261 752.743 122.261C751.834 122.261 750.993 122.455 750.22 122.841C749.455 123.22 748.811 123.746 748.289 124.42C747.773 125.095 747.44 125.864 747.289 126.727L745.425 138H743.402ZM759.317 138.398C758.264 138.398 757.336 138.193 756.533 137.784C755.73 137.367 755.132 136.769 754.738 135.989C754.351 135.201 754.245 134.246 754.42 133.125C754.571 132.261 754.859 131.534 755.283 130.943C755.715 130.352 756.26 129.867 756.92 129.489C757.579 129.102 758.336 128.799 759.192 128.58C760.048 128.36 760.98 128.193 761.988 128.08C762.973 127.958 763.814 127.852 764.51 127.761C765.207 127.67 765.749 127.527 766.135 127.33C766.522 127.133 766.753 126.814 766.829 126.375L766.897 125.966C767.094 124.777 766.912 123.841 766.351 123.159C765.791 122.47 764.851 122.125 763.533 122.125C762.276 122.125 761.185 122.405 760.26 122.966C759.344 123.519 758.662 124.167 758.215 124.909L756.42 124.216C756.965 123.261 757.635 122.5 758.431 121.932C759.226 121.356 760.079 120.943 760.988 120.693C761.897 120.436 762.795 120.307 763.681 120.307C764.348 120.307 765.026 120.394 765.715 120.568C766.404 120.742 767.022 121.045 767.567 121.477C768.12 121.902 768.526 122.496 768.783 123.261C769.048 124.019 769.086 124.981 768.897 126.148L766.92 138H764.897L765.363 135.239H765.238C764.92 135.754 764.48 136.254 763.92 136.739C763.367 137.223 762.704 137.621 761.931 137.932C761.158 138.242 760.287 138.398 759.317 138.398ZM759.829 136.545C760.904 136.545 761.878 136.307 762.749 135.83C763.628 135.352 764.348 134.72 764.908 133.932C765.476 133.136 765.84 132.261 765.999 131.307L766.42 128.784C766.253 128.928 765.98 129.057 765.601 129.17C765.23 129.284 764.81 129.386 764.34 129.477C763.878 129.561 763.412 129.633 762.942 129.693C762.48 129.754 762.071 129.807 761.715 129.852C760.707 129.973 759.829 130.163 759.079 130.42C758.336 130.678 757.742 131.034 757.295 131.489C756.848 131.936 756.567 132.511 756.454 133.216C756.279 134.277 756.51 135.098 757.147 135.682C757.791 136.258 758.685 136.545 759.829 136.545ZM775.778 127.091L773.971 138H771.948L774.857 120.545H776.823L776.369 123.284H776.551C777.096 122.39 777.85 121.674 778.812 121.136C779.782 120.591 780.907 120.318 782.187 120.318C783.354 120.318 784.338 120.564 785.141 121.057C785.952 121.542 786.528 122.258 786.869 123.205C787.217 124.152 787.278 125.314 787.051 126.693L785.153 138H783.13L784.994 126.818C785.229 125.394 785.02 124.265 784.369 123.432C783.725 122.591 782.729 122.17 781.38 122.17C780.463 122.17 779.611 122.367 778.823 122.761C778.043 123.155 777.384 123.723 776.846 124.466C776.308 125.201 775.952 126.076 775.778 127.091ZM804.128 124.375L802.184 124.875C802.086 124.352 801.904 123.883 801.639 123.466C801.381 123.042 801.006 122.708 800.514 122.466C800.029 122.216 799.393 122.091 798.605 122.091C797.423 122.091 796.404 122.379 795.548 122.955C794.692 123.523 794.192 124.25 794.048 125.136C793.927 125.879 794.082 126.481 794.514 126.943C794.953 127.405 795.688 127.769 796.718 128.034L799.264 128.682C800.673 129.045 801.677 129.614 802.275 130.386C802.881 131.159 803.09 132.136 802.9 133.318C802.734 134.303 802.313 135.174 801.639 135.932C800.972 136.689 800.116 137.284 799.071 137.716C798.033 138.148 796.874 138.364 795.593 138.364C793.874 138.364 792.521 137.977 791.537 137.205C790.559 136.432 790.037 135.318 789.968 133.864L792.003 133.409C792.063 134.439 792.415 135.22 793.059 135.75C793.711 136.28 794.628 136.545 795.809 136.545C797.158 136.545 798.29 136.239 799.207 135.625C800.124 135.011 800.65 134.254 800.787 133.352C800.915 132.64 800.783 132.049 800.389 131.58C800.003 131.11 799.343 130.761 798.412 130.534L795.696 129.852C794.234 129.481 793.199 128.902 792.593 128.114C791.995 127.318 791.794 126.337 791.991 125.17C792.15 124.208 792.552 123.364 793.196 122.636C793.84 121.909 794.654 121.341 795.639 120.932C796.624 120.515 797.7 120.307 798.866 120.307C800.472 120.307 801.696 120.67 802.537 121.398C803.378 122.117 803.908 123.11 804.128 124.375ZM805.091 144.545L809.114 120.545H811.079L810.534 123.875H810.773C811.091 123.352 811.504 122.814 812.011 122.261C812.526 121.708 813.167 121.246 813.932 120.875C814.704 120.496 815.629 120.307 816.704 120.307C818.144 120.307 819.337 120.682 820.284 121.432C821.239 122.182 821.905 123.235 822.284 124.591C822.67 125.947 822.712 127.523 822.409 129.318C822.114 131.121 821.549 132.701 820.716 134.057C819.882 135.413 818.864 136.47 817.659 137.227C816.462 137.985 815.151 138.364 813.727 138.364C812.674 138.364 811.822 138.174 811.17 137.795C810.526 137.417 810.034 136.951 809.693 136.398C809.352 135.837 809.106 135.292 808.954 134.761H808.773L807.136 144.545H805.091ZM809.659 129.284C809.432 130.693 809.432 131.943 809.659 133.034C809.886 134.117 810.345 134.97 811.034 135.591C811.723 136.205 812.632 136.511 813.761 136.511C814.92 136.511 815.954 136.193 816.864 135.557C817.773 134.913 818.53 134.045 819.136 132.955C819.742 131.864 820.159 130.64 820.386 129.284C820.598 127.943 820.591 126.735 820.364 125.659C820.136 124.583 819.682 123.731 819 123.102C818.318 122.466 817.39 122.148 816.216 122.148C815.079 122.148 814.057 122.455 813.148 123.068C812.246 123.674 811.496 124.515 810.898 125.591C810.299 126.659 809.886 127.89 809.659 129.284ZM829.878 138.398C828.825 138.398 827.897 138.193 827.094 137.784C826.291 137.367 825.692 136.769 825.298 135.989C824.912 135.201 824.806 134.246 824.98 133.125C825.132 132.261 825.42 131.534 825.844 130.943C826.276 130.352 826.821 129.867 827.48 129.489C828.139 129.102 828.897 128.799 829.753 128.58C830.609 128.36 831.541 128.193 832.548 128.08C833.533 127.958 834.374 127.852 835.071 127.761C835.768 127.67 836.31 127.527 836.696 127.33C837.083 127.133 837.314 126.814 837.389 126.375L837.458 125.966C837.655 124.777 837.473 123.841 836.912 123.159C836.352 122.47 835.412 122.125 834.094 122.125C832.836 122.125 831.745 122.405 830.821 122.966C829.905 123.519 829.223 124.167 828.776 124.909L826.98 124.216C827.526 123.261 828.196 122.5 828.992 121.932C829.787 121.356 830.639 120.943 831.548 120.693C832.458 120.436 833.355 120.307 834.242 120.307C834.908 120.307 835.586 120.394 836.276 120.568C836.965 120.742 837.583 121.045 838.128 121.477C838.681 121.902 839.086 122.496 839.344 123.261C839.609 124.019 839.647 124.981 839.458 126.148L837.48 138H835.458L835.923 135.239H835.798C835.48 135.754 835.041 136.254 834.48 136.739C833.927 137.223 833.264 137.621 832.492 137.932C831.719 138.242 830.848 138.398 829.878 138.398ZM830.389 136.545C831.465 136.545 832.439 136.307 833.31 135.83C834.189 135.352 834.908 134.72 835.469 133.932C836.037 133.136 836.401 132.261 836.56 131.307L836.98 128.784C836.814 128.928 836.541 129.057 836.162 129.17C835.791 129.284 835.37 129.386 834.901 129.477C834.439 129.561 833.973 129.633 833.503 129.693C833.041 129.754 832.632 129.807 832.276 129.852C831.268 129.973 830.389 130.163 829.639 130.42C828.897 130.678 828.302 131.034 827.855 131.489C827.408 131.936 827.128 132.511 827.014 133.216C826.84 134.277 827.071 135.098 827.708 135.682C828.352 136.258 829.245 136.545 830.389 136.545ZM842.509 138L845.418 120.545H847.384L846.929 123.227H847.077C847.562 122.348 848.286 121.64 849.248 121.102C850.217 120.557 851.251 120.284 852.35 120.284C852.517 120.284 852.702 120.288 852.907 120.295C853.111 120.295 853.282 120.303 853.418 120.318L853.066 122.375C852.975 122.36 852.816 122.337 852.589 122.307C852.369 122.277 852.123 122.261 851.85 122.261C850.941 122.261 850.1 122.455 849.327 122.841C848.562 123.22 847.918 123.746 847.395 124.42C846.88 125.095 846.547 125.864 846.395 126.727L844.532 138H842.509ZM860.075 138.364C858.446 138.364 857.101 137.985 856.041 137.227C854.98 136.462 854.238 135.405 853.813 134.057C853.389 132.701 853.325 131.14 853.62 129.375C853.916 127.617 854.499 126.057 855.37 124.693C856.241 123.322 857.317 122.25 858.597 121.477C859.878 120.697 861.268 120.307 862.768 120.307C863.715 120.307 864.601 120.481 865.427 120.83C866.253 121.17 866.953 121.697 867.529 122.409C868.113 123.114 868.518 124.004 868.745 125.08C868.972 126.148 868.965 127.413 868.722 128.875L868.563 129.875H854.927L855.211 128.091H866.791C866.98 126.97 866.927 125.962 866.631 125.068C866.336 124.174 865.832 123.466 865.12 122.943C864.416 122.413 863.541 122.148 862.495 122.148C861.427 122.148 860.416 122.447 859.461 123.045C858.514 123.644 857.711 124.424 857.052 125.386C856.4 126.341 855.98 127.36 855.791 128.443L855.563 129.784C855.321 131.261 855.351 132.5 855.654 133.5C855.957 134.492 856.506 135.242 857.302 135.75C858.097 136.258 859.116 136.511 860.359 136.511C861.192 136.511 861.946 136.383 862.62 136.125C863.294 135.867 863.881 135.523 864.381 135.091C864.881 134.652 865.283 134.17 865.586 133.648L867.393 134.273C867.006 135.008 866.461 135.686 865.756 136.307C865.059 136.928 864.23 137.428 863.268 137.807C862.313 138.178 861.249 138.364 860.075 138.364ZM875.135 127.091L873.328 138H871.305L874.214 120.545H876.18L875.725 123.284H875.907C876.453 122.39 877.207 121.674 878.169 121.136C879.138 120.591 880.263 120.318 881.544 120.318C882.71 120.318 883.695 120.564 884.498 121.057C885.309 121.542 885.885 122.258 886.225 123.205C886.574 124.152 886.635 125.314 886.407 126.693L884.51 138H882.487L884.35 126.818C884.585 125.394 884.377 124.265 883.725 123.432C883.082 122.591 882.085 122.17 880.737 122.17C879.82 122.17 878.968 122.367 878.18 122.761C877.4 123.155 876.741 123.723 876.203 124.466C875.665 125.201 875.309 126.076 875.135 127.091ZM899.268 120.545L898.984 122.307H890.643L890.939 120.545H899.268ZM894.223 116.364H896.257L893.416 133.443C893.295 134.17 893.325 134.742 893.507 135.159C893.689 135.568 893.969 135.86 894.348 136.034C894.727 136.201 895.143 136.284 895.598 136.284C895.863 136.284 896.09 136.269 896.28 136.239C896.477 136.201 896.651 136.163 896.802 136.125L896.95 137.955C896.73 138.03 896.469 138.098 896.166 138.159C895.863 138.227 895.499 138.261 895.075 138.261C894.333 138.261 893.647 138.098 893.018 137.773C892.39 137.447 891.912 136.962 891.587 136.318C891.261 135.674 891.174 134.875 891.325 133.92L894.223 116.364ZM916.113 138.364C914.582 138.364 913.294 137.977 912.249 137.205C911.204 136.424 910.465 135.345 910.033 133.966C909.601 132.587 909.529 130.996 909.817 129.193C910.105 127.436 910.677 125.89 911.533 124.557C912.397 123.216 913.457 122.174 914.715 121.432C915.972 120.682 917.34 120.307 918.817 120.307C920.355 120.307 921.643 120.697 922.681 121.477C923.726 122.258 924.465 123.337 924.897 124.716C925.336 126.095 925.412 127.689 925.124 129.5C924.836 131.25 924.26 132.792 923.397 134.125C922.533 135.451 921.472 136.489 920.215 137.239C918.965 137.989 917.597 138.364 916.113 138.364ZM916.135 136.511C917.378 136.511 918.484 136.182 919.454 135.523C920.431 134.856 921.238 133.97 921.874 132.864C922.51 131.75 922.938 130.527 923.158 129.193C923.363 127.92 923.34 126.75 923.09 125.682C922.84 124.614 922.359 123.758 921.647 123.114C920.935 122.47 919.988 122.148 918.806 122.148C917.571 122.148 916.465 122.485 915.488 123.159C914.51 123.826 913.704 124.72 913.067 125.841C912.431 126.955 912.007 128.174 911.794 129.5C911.582 130.78 911.597 131.951 911.84 133.011C912.09 134.072 912.571 134.92 913.283 135.557C914.003 136.193 914.954 136.511 916.135 136.511ZM927.803 138L930.712 120.545H932.678L932.224 123.227H932.371C932.856 122.348 933.58 121.64 934.542 121.102C935.512 120.557 936.546 120.284 937.644 120.284C937.811 120.284 937.996 120.288 938.201 120.295C938.406 120.295 938.576 120.303 938.712 120.318L938.36 122.375C938.269 122.36 938.11 122.337 937.883 122.307C937.663 122.277 937.417 122.261 937.144 122.261C936.235 122.261 935.394 122.455 934.621 122.841C933.856 123.22 933.212 123.746 932.69 124.42C932.174 125.095 931.841 125.864 931.69 126.727L929.826 138H927.803ZM943.926 144.909C942.736 144.909 941.717 144.754 940.869 144.443C940.02 144.14 939.331 143.723 938.801 143.193C938.278 142.663 937.895 142.068 937.653 141.409L939.494 140.33C939.661 140.769 939.914 141.201 940.255 141.625C940.596 142.049 941.077 142.398 941.698 142.67C942.32 142.951 943.134 143.091 944.142 143.091C945.679 143.091 947.001 142.701 948.108 141.92C949.214 141.148 949.903 139.951 950.176 138.33L950.789 134.398H950.608C950.297 134.928 949.88 135.458 949.358 135.989C948.835 136.511 948.187 136.947 947.414 137.295C946.649 137.644 945.744 137.818 944.698 137.818C943.304 137.818 942.123 137.473 941.153 136.784C940.183 136.095 939.498 135.11 939.096 133.83C938.695 132.542 938.645 131.008 938.948 129.227C939.236 127.462 939.789 125.909 940.608 124.568C941.433 123.227 942.448 122.182 943.653 121.432C944.865 120.682 946.191 120.307 947.63 120.307C948.698 120.307 949.554 120.496 950.198 120.875C950.842 121.246 951.331 121.708 951.664 122.261C952.005 122.814 952.251 123.352 952.403 123.875H952.608L953.153 120.545H955.13L952.176 138.455C951.926 139.932 951.411 141.148 950.63 142.102C949.85 143.057 948.88 143.761 947.721 144.216C946.57 144.678 945.304 144.909 943.926 144.909ZM945.153 135.966C946.274 135.966 947.282 135.697 948.176 135.159C949.077 134.614 949.831 133.837 950.437 132.83C951.051 131.814 951.471 130.602 951.698 129.193C951.926 127.83 951.914 126.621 951.664 125.568C951.422 124.508 950.948 123.674 950.244 123.068C949.547 122.455 948.63 122.148 947.494 122.148C946.32 122.148 945.282 122.462 944.38 123.091C943.486 123.72 942.748 124.568 942.164 125.636C941.589 126.697 941.191 127.883 940.971 129.193C940.759 130.527 940.767 131.705 940.994 132.727C941.229 133.742 941.691 134.538 942.38 135.114C943.07 135.682 943.994 135.966 945.153 135.966ZM962.054 138.398C961.001 138.398 960.073 138.193 959.27 137.784C958.467 137.367 957.868 136.769 957.474 135.989C957.088 135.201 956.982 134.246 957.156 133.125C957.308 132.261 957.595 131.534 958.02 130.943C958.452 130.352 958.997 129.867 959.656 129.489C960.315 129.102 961.073 128.799 961.929 128.58C962.785 128.36 963.717 128.193 964.724 128.08C965.709 127.958 966.55 127.852 967.247 127.761C967.944 127.67 968.486 127.527 968.872 127.33C969.258 127.133 969.489 126.814 969.565 126.375L969.633 125.966C969.83 124.777 969.649 123.841 969.088 123.159C968.527 122.47 967.588 122.125 966.27 122.125C965.012 122.125 963.921 122.405 962.997 122.966C962.08 123.519 961.399 124.167 960.952 124.909L959.156 124.216C959.702 123.261 960.372 122.5 961.167 121.932C961.963 121.356 962.815 120.943 963.724 120.693C964.633 120.436 965.531 120.307 966.417 120.307C967.084 120.307 967.762 120.394 968.452 120.568C969.141 120.742 969.758 121.045 970.304 121.477C970.857 121.902 971.262 122.496 971.52 123.261C971.785 124.019 971.823 124.981 971.633 126.148L969.656 138H967.633L968.099 135.239H967.974C967.656 135.754 967.217 136.254 966.656 136.739C966.103 137.223 965.44 137.621 964.667 137.932C963.895 138.242 963.024 138.398 962.054 138.398ZM962.565 136.545C963.641 136.545 964.614 136.307 965.486 135.83C966.364 135.352 967.084 134.72 967.645 133.932C968.213 133.136 968.577 132.261 968.736 131.307L969.156 128.784C968.989 128.928 968.717 129.057 968.338 129.17C967.967 129.284 967.546 129.386 967.077 129.477C966.614 129.561 966.149 129.633 965.679 129.693C965.217 129.754 964.808 129.807 964.452 129.852C963.444 129.973 962.565 130.163 961.815 130.42C961.073 130.678 960.478 131.034 960.031 131.489C959.584 131.936 959.304 132.511 959.19 133.216C959.016 134.277 959.247 135.098 959.883 135.682C960.527 136.258 961.421 136.545 962.565 136.545ZM978.514 127.091L976.708 138H974.685L977.594 120.545H979.56L979.105 123.284H979.287C979.833 122.39 980.586 121.674 981.548 121.136C982.518 120.591 983.643 120.318 984.923 120.318C986.09 120.318 987.075 120.564 987.878 121.057C988.689 121.542 989.264 122.258 989.605 123.205C989.954 124.152 990.014 125.314 989.787 126.693L987.889 138H985.867L987.73 126.818C987.965 125.394 987.757 124.265 987.105 123.432C986.461 122.591 985.465 122.17 984.117 122.17C983.2 122.17 982.348 122.367 981.56 122.761C980.779 123.155 980.12 123.723 979.583 124.466C979.045 125.201 978.689 126.076 978.514 127.091ZM992.887 138L995.796 120.545H997.83L994.921 138H992.887ZM997.546 117.511C997.122 117.511 996.762 117.367 996.466 117.08C996.178 116.792 996.038 116.443 996.046 116.034C996.061 115.648 996.216 115.314 996.512 115.034C996.815 114.746 997.171 114.602 997.58 114.602C998.004 114.602 998.364 114.75 998.659 115.045C998.955 115.333 999.095 115.682 999.08 116.091C999.072 116.477 998.917 116.811 998.614 117.091C998.311 117.371 997.955 117.511 997.546 117.511ZM999.373 138L999.657 136.398L1012.01 122.602L1012.03 122.455H1002.4L1002.71 120.545H1014.98L1014.69 122.216L1002.53 135.943L1002.51 136.091H1012.75L1012.43 138H999.373ZM1021.36 138.398C1020.31 138.398 1019.38 138.193 1018.58 137.784C1017.78 137.367 1017.18 136.769 1016.79 135.989C1016.4 135.201 1016.29 134.246 1016.47 133.125C1016.62 132.261 1016.91 131.534 1017.33 130.943C1017.76 130.352 1018.31 129.867 1018.97 129.489C1019.63 129.102 1020.38 128.799 1021.24 128.58C1022.1 128.36 1023.03 128.193 1024.04 128.08C1025.02 127.958 1025.86 127.852 1026.56 127.761C1027.25 127.67 1027.8 127.527 1028.18 127.33C1028.57 127.133 1028.8 126.814 1028.88 126.375L1028.94 125.966C1029.14 124.777 1028.96 123.841 1028.4 123.159C1027.84 122.47 1026.9 122.125 1025.58 122.125C1024.32 122.125 1023.23 122.405 1022.31 122.966C1021.39 123.519 1020.71 124.167 1020.26 124.909L1018.47 124.216C1019.01 123.261 1019.68 122.5 1020.48 121.932C1021.27 121.356 1022.13 120.943 1023.04 120.693C1023.94 120.436 1024.84 120.307 1025.73 120.307C1026.39 120.307 1027.07 120.394 1027.76 120.568C1028.45 120.742 1029.07 121.045 1029.61 121.477C1030.17 121.902 1030.57 122.496 1030.83 123.261C1031.1 124.019 1031.13 124.981 1030.94 126.148L1028.97 138H1026.94L1027.41 135.239H1027.29C1026.97 135.754 1026.53 136.254 1025.97 136.739C1025.41 137.223 1024.75 137.621 1023.98 137.932C1023.21 138.242 1022.33 138.398 1021.36 138.398ZM1021.88 136.545C1022.95 136.545 1023.93 136.307 1024.8 135.83C1025.68 135.352 1026.39 134.72 1026.96 133.932C1027.52 133.136 1027.89 132.261 1028.05 131.307L1028.47 128.784C1028.3 128.928 1028.03 129.057 1027.65 129.17C1027.28 129.284 1026.86 129.386 1026.39 129.477C1025.93 129.561 1025.46 129.633 1024.99 129.693C1024.53 129.754 1024.12 129.807 1023.76 129.852C1022.75 129.973 1021.88 130.163 1021.13 130.42C1020.38 130.678 1019.79 131.034 1019.34 131.489C1018.89 131.936 1018.61 132.511 1018.5 133.216C1018.33 134.277 1018.56 135.098 1019.19 135.682C1019.84 136.258 1020.73 136.545 1021.88 136.545ZM1043.78 120.545L1043.5 122.307H1035.15L1035.45 120.545H1043.78ZM1038.73 116.364H1040.77L1037.93 133.443C1037.81 134.17 1037.84 134.742 1038.02 135.159C1038.2 135.568 1038.48 135.86 1038.86 136.034C1039.24 136.201 1039.65 136.284 1040.11 136.284C1040.37 136.284 1040.6 136.269 1040.79 136.239C1040.99 136.201 1041.16 136.163 1041.31 136.125L1041.46 137.955C1041.24 138.03 1040.98 138.098 1040.68 138.159C1040.37 138.227 1040.01 138.261 1039.59 138.261C1038.84 138.261 1038.16 138.098 1037.53 137.773C1036.9 137.447 1036.42 136.962 1036.1 136.318C1035.77 135.674 1035.68 134.875 1035.84 133.92L1038.73 116.364ZM1045.13 138L1048.04 120.545H1050.08L1047.17 138H1045.13ZM1049.79 117.511C1049.37 117.511 1049.01 117.367 1048.71 117.08C1048.43 116.792 1048.29 116.443 1048.29 116.034C1048.31 115.648 1048.46 115.314 1048.76 115.034C1049.06 114.746 1049.42 114.602 1049.83 114.602C1050.25 114.602 1050.61 114.75 1050.91 115.045C1051.2 115.333 1051.34 115.682 1051.33 116.091C1051.32 116.477 1051.17 116.811 1050.86 117.091C1050.56 117.371 1050.2 117.511 1049.79 117.511ZM1059.03 138.364C1057.5 138.364 1056.21 137.977 1055.17 137.205C1054.12 136.424 1053.38 135.345 1052.95 133.966C1052.52 132.587 1052.45 130.996 1052.73 129.193C1053.02 127.436 1053.59 125.89 1054.45 124.557C1055.31 123.216 1056.37 122.174 1057.63 121.432C1058.89 120.682 1060.26 120.307 1061.73 120.307C1063.27 120.307 1064.56 120.697 1065.6 121.477C1066.64 122.258 1067.38 123.337 1067.81 124.716C1068.25 126.095 1068.33 127.689 1068.04 129.5C1067.75 131.25 1067.18 132.792 1066.31 134.125C1065.45 135.451 1064.39 136.489 1063.13 137.239C1061.88 137.989 1060.52 138.364 1059.03 138.364ZM1059.05 136.511C1060.3 136.511 1061.4 136.182 1062.37 135.523C1063.35 134.856 1064.16 133.97 1064.79 132.864C1065.43 131.75 1065.86 130.527 1066.08 129.193C1066.28 127.92 1066.26 126.75 1066.01 125.682C1065.76 124.614 1065.28 123.758 1064.56 123.114C1063.85 122.47 1062.91 122.148 1061.72 122.148C1060.49 122.148 1059.38 122.485 1058.41 123.159C1057.43 123.826 1056.62 124.72 1055.98 125.841C1055.35 126.955 1054.92 128.174 1054.71 129.5C1054.5 130.78 1054.52 131.951 1054.76 133.011C1055.01 134.072 1055.49 134.92 1056.2 135.557C1056.92 136.193 1057.87 136.511 1059.05 136.511ZM1074.55 127.091L1072.74 138H1070.72L1073.63 120.545H1075.6L1075.14 123.284H1075.32C1075.87 122.39 1076.62 121.674 1077.58 121.136C1078.55 120.591 1079.68 120.318 1080.96 120.318C1082.13 120.318 1083.11 120.564 1083.91 121.057C1084.72 121.542 1085.3 122.258 1085.64 123.205C1085.99 124.152 1086.05 125.314 1085.82 126.693L1083.93 138H1081.9L1083.77 126.818C1084 125.394 1083.79 124.265 1083.14 123.432C1082.5 122.591 1081.5 122.17 1080.15 122.17C1079.24 122.17 1078.38 122.367 1077.6 122.761C1076.82 123.155 1076.16 123.723 1075.62 124.466C1075.08 125.201 1074.72 126.076 1074.55 127.091ZM1102.9 124.375L1100.96 124.875C1100.86 124.352 1100.68 123.883 1100.41 123.466C1100.15 123.042 1099.78 122.708 1099.29 122.466C1098.8 122.216 1098.17 122.091 1097.38 122.091C1096.2 122.091 1095.18 122.379 1094.32 122.955C1093.46 123.523 1092.96 124.25 1092.82 125.136C1092.7 125.879 1092.85 126.481 1093.29 126.943C1093.73 127.405 1094.46 127.769 1095.49 128.034L1098.04 128.682C1099.45 129.045 1100.45 129.614 1101.05 130.386C1101.65 131.159 1101.86 132.136 1101.67 133.318C1101.51 134.303 1101.09 135.174 1100.41 135.932C1099.74 136.689 1098.89 137.284 1097.84 137.716C1096.81 138.148 1095.65 138.364 1094.37 138.364C1092.65 138.364 1091.29 137.977 1090.31 137.205C1089.33 136.432 1088.81 135.318 1088.74 133.864L1090.77 133.409C1090.84 134.439 1091.19 135.22 1091.83 135.75C1092.48 136.28 1093.4 136.545 1094.58 136.545C1095.93 136.545 1097.06 136.239 1097.98 135.625C1098.9 135.011 1099.42 134.254 1099.56 133.352C1099.69 132.64 1099.56 132.049 1099.16 131.58C1098.77 131.11 1098.12 130.761 1097.18 130.534L1094.47 129.852C1093.01 129.481 1091.97 128.902 1091.37 128.114C1090.77 127.318 1090.57 126.337 1090.76 125.17C1090.92 124.208 1091.32 123.364 1091.97 122.636C1092.61 121.909 1093.43 121.341 1094.41 120.932C1095.4 120.515 1096.47 120.307 1097.64 120.307C1099.24 120.307 1100.47 120.67 1101.31 121.398C1102.15 122.117 1102.68 123.11 1102.9 124.375ZM1106.8 138.17C1106.34 138.17 1105.96 138.011 1105.65 137.693C1105.34 137.375 1105.19 136.989 1105.19 136.534C1105.19 136.08 1105.36 135.697 1105.69 135.386C1106.03 135.076 1106.42 134.92 1106.86 134.92C1107.31 134.92 1107.69 135.08 1108.01 135.398C1108.33 135.716 1108.48 136.095 1108.47 136.534C1108.46 136.837 1108.37 137.114 1108.22 137.364C1108.06 137.606 1107.86 137.803 1107.61 137.955C1107.37 138.098 1107.1 138.17 1106.8 138.17Z" fill="white"/>
</svg>
